<svg width="64" height="64" viewBox="0 0 24 24" fill="none" xmlns="http://www.w3.org/2000/svg">
    <path d="M12 2a2 2 0 0 1 2 2c0 .74-.4 1.39-1 1.73V7h1a7 7 0 0 1 7 7h1a1 1 0 0 1 1 1v3a1 1 0 0 1-1 1h-1v1a2 2 0 0 1-2 2H5a2 2 0 0 1-2-2v-1H2a1 1 0 0 1-1-1v-3a1 1 0 0 1 1-1h1a7 7 0 0 1 7-7V5.73C9.4 5.39 9 4.74 9 4a2 2 0 0 1 2-2z" stroke="#6366f1" stroke-width="2"/>
    <path d="M8 11h.01" stroke="#6366f1" stroke-width="2"/>
    <path d="M16 11h.01" stroke="#6366f1" stroke-width="2"/>
    <path d="M9 16c.5 1 2 1 2.5 1s2-1 2.5-1" stroke="#6366f1" stroke-width="2"/>
</svg>
